# xmcd
#
# Track frame offsets: 
#        150
#        17004
#        36930
#        52614
#        76494
#        93497
#        110672
#        119419
#        138015
#        151007
#        174074
#
# Disc length: 2532 seconds
#
# Revision: 3
# Processed by: cddbd v1.5.1PL2 Copyright (c) Steve Scherf et al.
# Submitted via: ExactAudioCopy v0.95b3
#
DISCID=7709e20b
DTITLE=Brooks, Garth - The Lost Sessions
DYEAR=2005
DGENRE=Country
TTITLE0=Fishin' In The Dark
TTITLE1=That Girl Is A Cowboy
TTITLE2=Good Ride Cowboy
TTITLE3=For A Minute There
TTITLE4=Please Operator (Could You Trace This Call)
TTITLE5=I'd Rather Have Nothing
TTITLE6=American Dream
TTITLE7=I'll Be The Wind
TTITLE8=My Baby No Esta Aqui
TTITLE9=Allison Miranda
TTITLE10=Last Night I Had The Strangest Dream
EXTD=
EXTT0=
EXTT1=
EXTT2=
EXTT3=
EXTT4=
EXTT5=
EXTT6=
EXTT7=
EXTT8=
EXTT9=
EXTT10=
PLAYORDER=
